<svg width="14" height="22" viewBox="0 0 14 22" fill="none" xmlns="http://www.w3.org/2000/svg">
<path d="M2 22C1.45 22 0.979167 21.8042 0.5875 21.4125C0.195833 21.0208 0 20.55 0 20V2C0 1.45 0.195833 0.979167 0.5875 0.5875C0.979167 0.195833 1.45 0 2 0H12C12.55 0 13.0208 0.195833 13.4125 0.5875C13.8042 0.979167 14 1.45 14 2V16H12V6C12 5.44771 11.5523 5 11 5H3C2.44772 5 2 5.44772 2 6V16C2 16.5523 2.44772 17 3 17H11C11.5523 17 12 16.5523 12 16H14V20C14 20.55 13.8042 21.0208 13.4125 21.4125C13.0208 21.8042 12.55 22 12 22H2ZM2.5 19C2.22386 19 2 19.2239 2 19.5C2 19.7761 2.22386 20 2.5 20H11.5C11.7761 20 12 19.7761 12 19.5C12 19.2239 11.7761 19 11.5 19H2.5ZM2 2.5C2 2.77614 2.22386 3 2.5 3H11.5C11.7761 3 12 2.77614 12 2.5C12 2.22386 11.7761 2 11.5 2H2.5C2.22386 2 2 2.22386 2 2.5Z" fill="#A3A3A3"/>
</svg>
